<svg width="20" height="21" viewBox="0 0 20 21" fill="none" xmlns="http://www.w3.org/2000/svg">
<g id="Frame">
<path id="Vector" d="M9.99998 1.88637C14.8285 1.88637 18.5714 5.42351 18.5714 10.2007C18.5714 14.9778 14.8285 18.5149 9.99998 18.5149C9.16181 18.5169 8.32719 18.4061 7.51855 18.1857C7.36663 18.1437 7.20486 18.1555 7.06069 18.2192L5.35712 18.9699C5.25431 19.0152 5.14196 19.0346 5.02992 19.0264C4.91789 19.0181 4.80959 18.9825 4.71453 18.9226C4.61947 18.8627 4.54056 18.7805 4.48472 18.683C4.42888 18.5855 4.39782 18.4758 4.39426 18.3635L4.34783 16.8392C4.34468 16.7464 4.32267 16.6553 4.28312 16.5713C4.24358 16.4873 4.18734 16.4122 4.11783 16.3507C3.25784 15.5759 2.57308 14.6265 2.10932 13.566C1.64556 12.5054 1.41346 11.3581 1.42855 10.2007C1.42855 5.42351 5.1714 1.88637 9.99998 1.88637ZM4.85283 12.6321C4.8019 12.7128 4.78092 12.8088 4.79356 12.9034C4.80621 12.9979 4.85167 13.0851 4.92202 13.1496C4.99236 13.214 5.08312 13.2518 5.17844 13.2561C5.27376 13.2605 5.36759 13.2313 5.44355 13.1735L8.14783 11.1207C8.2372 11.0534 8.346 11.0171 8.45783 11.0171C8.56966 11.0171 8.67846 11.0534 8.76783 11.1207L10.7678 12.6207C10.9099 12.7269 11.0724 12.8025 11.2452 12.8429C11.4179 12.8833 11.5971 12.8874 11.7716 12.8552C11.946 12.8229 12.1119 12.7549 12.2587 12.6554C12.4056 12.5559 12.5303 12.4271 12.625 12.2771L15.1428 8.2828C15.1938 8.20211 15.2147 8.10609 15.2021 8.01151C15.1895 7.91693 15.144 7.8298 15.0737 7.76532C15.0033 7.70085 14.9125 7.66313 14.8172 7.65875C14.7219 7.65437 14.6281 7.68361 14.5521 7.74137L11.8478 9.79423C11.7585 9.86145 11.6497 9.8978 11.5378 9.8978C11.426 9.8978 11.3172 9.86145 11.2278 9.79423L9.22783 8.29422C9.08576 8.18801 8.92323 8.11234 8.75049 8.07198C8.57775 8.03162 8.39853 8.02745 8.2241 8.05972C8.04966 8.09199 7.8838 8.16001 7.73693 8.25949C7.59006 8.35898 7.46536 8.48778 7.37069 8.6378L4.85283 12.6321Z" fill="white"/>
</g>
</svg>
